<?xml version="1.0" encoding="UTF-8" standalone="no"?>
<svg width="22px" height="32px" viewBox="0 0 22 32" version="1.1" xmlns="http://www.w3.org/2000/svg" xmlns:xlink="http://www.w3.org/1999/xlink">
    <!-- Generator: Sketch 46.2 (44496) - http://www.bohemiancoding.com/sketch -->
    <title>forward</title>
    <desc>Created with Sketch.</desc>
    <defs></defs>
    <g id="Page-1" stroke="none" stroke-width="1" fill="none" fill-rule="evenodd">
        <g id="slide-1" transform="translate(-176.000000, -605.000000)" fill="#121313">
            <g id="forward" transform="translate(187.500000, 621.000000) rotate(-90.000000) translate(-187.500000, -621.000000) translate(171.500000, 609.500000)">
                <path d="M32,11.009 C32,10.742 31.89,10.487 31.707,10.295 L21.808,0.296 C21.417,-0.099 20.784,-0.098 20.394,0.296 C20.003,0.69 20.003,1.33 20.394,1.724 L28.587,9.999 L1,9.999 C0.448,9.999 0,10.451 0,11.009 C0,11.567 0.448,12.019 1,12.019 L28.586,12.019 L20.394,20.294 C20.003,20.688 20.004,21.328 20.394,21.722 C20.785,22.116 21.418,22.116 21.808,21.722 L31.707,11.723 C31.894,11.534 31.997,11.274 32,11.009 Z" id="Arrow_Forward"></path>
            </g>
        </g>
    </g>
</svg>