<svg id="Objects" xmlns="http://www.w3.org/2000/svg" xmlns:xlink="http://www.w3.org/1999/xlink" viewBox="0 0 275 275"><defs><style>.cls-1{fill:#eceef1;}.cls-2{fill:url(#linear-gradient);}.cls-3{fill:#344563;}.cls-4,.cls-5{fill:none;stroke-miterlimit:10;stroke-width:2px;}.cls-4{stroke:#e5e8ec;}.cls-5{stroke:#0065ff;}</style><linearGradient id="linear-gradient" x1="76.79" y1="141.46" x2="198.21" y2="20.04" gradientUnits="userSpaceOnUse"><stop offset="0" stop-color="#ff5230"/><stop offset="1" stop-color="#ff7143"/></linearGradient></defs><title>BTCYS_1</title><rect id="_Rectangle_" data-name="&lt;Rectangle&gt;" class="cls-1" x="39.89" y="46.98" width="195.22" height="195.22" rx="16.84" ry="16.84"/><path id="_Rectangle_2" data-name="&lt;Rectangle&gt;" class="cls-2" d="M56.89,47H218.11a17,17,0,0,1,17,17v40.58a0,0,0,0,1,0,0H39.89a0,0,0,0,1,0,0V64A17,17,0,0,1,56.89,47Z"/><circle class="cls-3" cx="131.56" cy="61.16" r="5.43"/><path class="cls-4" d="M137,61.16A14.18,14.18,0,1,1,151.18,47"/><circle class="cls-3" cx="196.79" cy="61.16" r="5.43"/><path class="cls-4" d="M202.23,61.16A14.18,14.18,0,1,1,216.41,47"/><circle class="cls-3" cx="66.33" cy="61.16" r="5.43"/><path class="cls-4" d="M71.77,61.16A14.18,14.18,0,1,1,85.95,47"/><line class="cls-5" x1="39.89" y1="134.85" x2="235.11" y2="134.85"/><line class="cls-5" x1="39.89" y1="170.55" x2="235.11" y2="170.55"/><line class="cls-5" x1="39.89" y1="206.25" x2="235.11" y2="206.25"/><line class="cls-5" x1="77.55" y1="104.56" x2="77.55" y2="242.2"/><line class="cls-5" x1="117.86" y1="104.56" x2="117.86" y2="242.2"/><line class="cls-5" x1="158.16" y1="104.56" x2="158.16" y2="242.2"/><line class="cls-5" x1="198.46" y1="104.56" x2="198.46" y2="242.2"/></svg>