<?xml version="1.0" encoding="UTF-8" standalone="no"?>
<svg width="472px" height="159px" viewBox="0 0 472 159" version="1.1" xmlns="http://www.w3.org/2000/svg" xmlns:xlink="http://www.w3.org/1999/xlink">
    <!-- Generator: Sketch 46.2 (44496) - http://www.bohemiancoding.com/sketch -->
    <title>Logo Alumni (Black)</title>
    <desc>Created with Sketch.</desc>
    <defs></defs>
    <g id="Page-1" stroke="none" stroke-width="1" fill="none" fill-rule="evenodd">
        <g id="Alumni-Event" transform="translate(-50.000000, -30.000000)" fill-rule="nonzero">
            <g id="Content" transform="translate(44.000000, 30.000000)">
                <g id="Logo-Alumni-(Black)" transform="translate(6.000000, 0.000000)">
                    <g id="Lettrage" transform="translate(192.000000, 45.000000)" fill="#000000">
                        <path d="M1.90265589,2.7322314 L11.0354041,0 L11.0354041,57 L0,57 L0,5.18181818 C0,4.05123968 0.761062355,3.01487603 1.90265589,2.7322314 L1.90265589,2.7322314 Z" id="Shape"></path>
                        <path d="M32.586547,57.9375 C24.5903964,57.9375 18.4756929,51.9248814 16.2179563,44.5970025 C13.8661473,36.987282 15.371305,27.9683541 21.0156467,22.1436298 C23.6496727,19.419162 27.1303501,17.5402187 30.9873168,17.16443 C34.5620665,16.7886414 38.3249611,17.4462715 41.429349,19.2312677 C44.2515198,20.9223167 46.415184,23.6467845 47.8262694,26.6530937 C48.2025589,27.4046711 48.4847761,28.2501956 48.7669931,29.0957201 C48.9551377,29.6594031 48.5788484,30.0351917 48.2966312,30.5988748 C47.5440524,32.0080822 46.7914735,33.3233426 45.8507498,34.5446557 C43.6870857,37.3630706 40.9589871,39.7117498 37.7605269,41.2149045 C34.4679942,42.8120062 30.7991722,43.3756894 27.1303501,43.3756894 C27.6947843,44.6909496 28.5414355,45.9122627 29.7643761,46.7577872 C31.1754617,47.6033117 32.7746917,47.6972589 34.3739219,47.5093646 C35.7850072,47.4154174 37.0079479,46.9456817 38.2308886,46.2880515 C40.112336,45.2546327 42.3700725,45.5364741 43.8752303,47.0396287 C44.5337368,47.6972589 45.1922433,48.3548891 45.8507498,48.9185721 C46.2270394,49.2943607 46.7914735,49.6701495 47.0736905,50.1398852 C47.2618354,50.4217267 45.4744605,52.1127757 45.2863157,52.3006701 C41.711566,55.7767151 37.3842374,57.9375 32.586547,57.9375 M32.586547,27.6865127 C28.7295803,27.6865127 26.9422055,31.5383464 26.2836989,34.8264971 C29.2940145,34.7325501 32.30433,34.2628142 34.6561391,32.3838709 C35.3146456,31.914135 35.8790797,31.3504521 36.3494414,30.7867691 C36.6316586,30.5049276 36.8198032,30.223086 37.1020204,29.9412446 C37.1960927,29.7533503 37.4783097,29.6594031 37.2901651,29.4715087 C37.1960927,29.3775615 37.0079479,29.2836144 36.9138756,29.1896672 C35.5968626,28.0623013 34.2798495,27.6865127 32.586547,27.6865127" id="Shape"></path>
                        <path d="M222.297929,58.125 C219.665862,58.125 217.221797,57.5599078 214.965739,56.5239054 C212.70968,55.3937212 210.735629,53.8868087 209.137589,52.0031681 C207.539546,50.1195276 206.223513,47.859159 205.37749,45.4104262 C204.531469,42.9616935 204.061456,40.3245967 204.061456,37.6875 C204.061456,35.0504032 204.531469,32.4133065 205.37749,29.9645737 C206.223513,27.515841 207.539546,25.2554724 209.137589,23.3718319 C210.735629,21.4881913 212.70968,19.8870968 214.965739,18.8510946 C217.221797,17.7209101 219.665862,17.25 222.297929,17.25 C224.929997,17.25 227.374062,17.8150922 229.630119,18.8510946 C231.886178,19.9812788 233.860229,21.4881913 235.45827,23.3718319 C237.056312,25.2554724 238.372346,27.515841 239.218368,29.9645737 C240.064389,32.4133065 240.534402,35.0504032 240.534402,37.6875 C240.534402,40.3245967 240.064389,42.9616935 239.218368,45.4104262 C238.372346,47.859159 237.056312,50.1195276 235.45827,52.0031681 C233.860229,53.8868087 231.886178,55.4879032 229.630119,56.5239054 C227.374062,57.5599078 224.929997,58.125 222.297929,58.125 M222.297929,27.8925692 C220.135873,27.8925692 218.349826,28.8343894 217.033793,30.7180299 C215.623756,32.6958525 214.965739,34.9562212 214.965739,37.593318 C214.965739,40.2304147 215.717759,42.4907835 217.033793,44.4686061 C218.349826,46.3522466 220.135873,47.2940668 222.297929,47.2940668 C224.459986,47.2940668 226.246032,46.3522466 227.562066,44.4686061 C228.972102,42.4907835 229.630119,40.2304147 229.630119,37.593318 C229.630119,34.9562212 228.972102,32.6958525 227.562066,30.7180299 C226.246032,28.8343894 224.459986,27.8925692 222.297929,27.8925692" id="Shape"></path>
                        <path d="M269.261607,33.5054782 C269.261607,24.541239 260.783929,29.0705389 258.334821,34.3547218 L258.334823,57 L247.59643,57 L247.59643,34.9208844 C247.59643,29.6367013 245.053127,25.5792036 240.908484,22.6540307 L247.973215,18.4078122 C251.458483,16.3318831 252.400447,19.0683351 254.755359,22.3709496 C262.856251,15.0108374 280,14.8221165 280,29.1648992 L280,57 L269.261607,57 L269.261607,33.5054782 Z" id="Shape"></path>
                        <path d="M100.582091,56.3140508 C98.1344587,50.7609956 95.780966,45.2079407 93.3333333,39.6548858 C92.2036568,42.2902339 82.7896853,66.6672041 77.9885599,54.24342 C73.658133,42.8549513 69.2335665,31.3723629 64.9031396,19.9838944 C69.2335665,18.6662202 74.4112507,14.713198 76.1057657,19.7015355 C78.2709791,26.0075471 80.3420527,32.3135588 82.5072661,38.6195704 C84.0135015,34.4783091 87.3083915,18.7603399 91.7329583,18.7603399 C100.676231,18.7603399 101.335209,30.8076456 104.25354,38.6195704 C106.042195,33.2547546 107.830849,27.9840583 109.619504,22.6192425 C112.255416,14.8073176 113.949931,17.7250245 121.763527,20.0780139 C118.374497,28.8311344 113.008534,60.2670729 100.582091,56.3140508 L100.582091,56.3140508 Z" id="Shape"></path>
                        <path d="M159.087512,53.1902029 C157.022577,51.3121444 154.300617,48.213348 153.549732,46.7109011 C148.668976,37.2267058 156.740995,23.4229761 143.037335,18.3522181 C139.65835,17.1314801 135.716201,16.9436743 132.337217,17.6948977 C130.929306,18.0705093 126.236272,19.1973444 125.673108,20.8875971 C125.203804,22.3900438 128.864371,28.0242193 129.615257,29.620569 C132.900381,27.2729959 140.784678,25.3010346 141.441703,31.3108217 C134.21443,31.3108217 125.673108,32.3437537 122.387984,39.9498906 C118.539696,48.9645712 126.423993,58.1670579 135.622341,58.1670579 C139.376768,58.1670579 143.131196,56.5707082 145.759295,53.9414263 C146.228598,54.5048439 146.604041,55.0682614 147.073344,55.631679 C147.636509,56.3829022 150.264608,59.19999 151.766379,60.7024369 C152.329543,61.2658543 153.26815,61.2658543 153.831314,60.7024369 L159.087512,55.4438732 C159.744537,54.6926497 159.650677,53.7536205 159.087512,53.1902029 L159.087512,53.1902029 Z M135.622341,47.9316392 C129.9907,47.2743188 133.463545,39.8559878 138.062719,39.8559878 C144.726827,39.8559878 141.347843,48.5889596 135.622341,47.9316392 L135.622341,47.9316392 Z" id="Shape"></path>
                        <path d="M203.126253,22.8573536 C200.778182,21.4429961 198.336188,20.0286386 195.988115,18.6142811 C192.794739,16.7284711 192.137279,18.8028621 189.789209,21.820158 C178.142775,10.3167171 161.330586,21.5372865 160.109589,35.6808615 C158.982515,48.410079 172.601328,64.7223354 185.750526,55.6704474 C185.656603,59.9135199 182.744995,64.0623021 178.330621,64.250883 C174.949399,64.250883 171.004639,63.0251064 167.247725,59.9135199 C166.496343,59.2534866 165.275345,59.3477769 164.617886,60.1021011 L160.203512,65.1937881 C159.452129,66.0424026 159.639975,67.2681789 160.48528,67.9282125 C164.711808,71.039799 167.623417,72.2655756 169.783642,73.302771 C172.225636,74.434257 175.043321,75 178.330621,75 C193.170431,75 196.45773,60.7621344 196.45773,48.8815316 C196.45773,39.5467721 194.485352,29.0805266 203.126253,22.8573536 L203.126253,22.8573536 Z M177.861007,47.4671741 C168.468722,47.4671741 168.468722,28.043331 177.861007,28.043331 C188.192521,28.043331 188.192521,47.4671741 177.861007,47.4671741 L177.861007,47.4671741 Z" id="Shape"></path>
                    </g>
                    <g id="Logo">
                        <path d="M79.5,159 C123.406638,159 159,123.406638 159,79.5 C159,35.5933624 123.406638,0 79.5,0 C35.5933624,0 0,35.5933624 0,79.5 C0,123.406638 35.5933624,159 79.5,159 Z" id="black-circle" fill="#D23333"></path>
                        <g id="icon" transform="translate(27.756777, 47.891566)" fill="#FFFFFF">
                            <path d="M23.6114531,44.3013017 C18.3807212,44.3013017 14.1512751,48.4959113 14.1512751,53.6831059 C14.1512751,58.8705034 18.3809257,63.0649102 23.6114531,63.0649102 C28.8419807,63.0649102 33.0716312,58.8703007 33.0716312,53.6831059 C33.0716312,48.4959113 28.8419807,44.3013017 23.6114531,44.3013017 L23.6114531,44.3013017 Z M23.6114531,58.7214636 C20.7834392,58.7214636 18.4559659,56.4132724 18.4559659,53.6086875 C18.4559659,50.8041024 20.7834392,48.4959113 23.6114531,48.4959113 C26.4394671,48.4959113 28.7669404,50.8041024 28.7669404,53.6086875 C28.7669404,56.4876909 26.5145074,58.7214636 23.6114531,58.7214636 L23.6114531,58.7214636 Z" id="Back-wheel"></path>
                            <path d="M78.4705487,44.3013017 C73.2398168,44.3013017 69.0103706,48.4959113 69.0103706,53.6831059 C69.0103706,58.8705034 73.2400213,63.0649102 78.4705487,63.0649102 C83.7012808,63.0649102 87.9307268,58.8703007 87.9307268,53.6831059 C87.9309313,48.4959113 83.7012808,44.3013017 78.4705487,44.3013017 L78.4705487,44.3013017 Z M78.4705487,58.7214636 C75.6425348,58.7214636 73.3150614,56.4132724 73.3150614,53.6086875 C73.3150614,50.8041024 75.6425348,48.4959113 78.4705487,48.4959113 C81.2985628,48.4959113 83.6260361,50.8041024 83.6260361,53.6086875 C83.6262405,56.4876909 81.2987672,58.7214636 78.4705487,58.7214636 L78.4705487,58.7214636 Z" id="Front-wheel"></path>
                            <path d="M23.6114531,42.4148831 C29.9183066,42.4148831 34.9738086,47.4285023 34.9738086,53.6831059 L67.1086024,53.6831059 C67.1086024,47.4285023 72.1641041,42.4148831 78.4709576,42.4148831 C84.7778113,42.4148831 89.8333131,47.4285023 89.8333131,53.6831059 L101.620964,53.4349089 C101.620964,53.4349089 103.372857,52.8640965 103.372857,49.4884963 C103.372857,46.1130988 101.045384,45.7902806 101.045384,45.7902806 L95.5643813,45.7158621 C95.5643813,45.7158621 94.8362711,41.4965139 90.3336493,37.2274858 C85.8310275,32.9584577 79.3718492,32.9584575 79.3718492,32.9584575 L1.2625569,33.281073 L1.2625569,48.5948657 C1.2625569,48.5948657 0.111395111,47.9246933 0.0363549023,51.0520965 C-0.0390942454,54.1050814 1.36233789,53.6086875 1.36233789,53.6086875 L12.2490978,53.6831059 C12.2490978,47.4128218 17.3045996,42.4148831 23.6114531,42.4148831 Z" id="Bottom-frame"></path>
                            <path d="M100.719664,30.0796568 L100.294164,24.7186838 C100.294164,24.7186838 97.2474653,14.8612019 89.9395303,7.36561335 L91.0982059,7.36561335 C87.7652788,0.780010678 61.1767431,0.414231641 51.741717,0.0975054315 C42.1312541,-0.225110053 6.24260957,2.23191812 2.68872981,5.45847851 C1.11206754,6.84830034 1.36233789,8.90849726 1.36233789,8.90849726 L1.36233789,30.4022723 L79.4286896,30.4022736 C79.4286896,30.4022736 86.5470246,30.4022736 92.0100926,34.7704575 C96.7549146,38.5643432 97.8914456,44.3260403 97.8914456,44.3260403 L100.71946,44.3260403 L100.644419,35.837664 L101.895771,35.9120824 C103.122178,34.0258667 102.621637,30.7248878 101.720745,30.0796568 L100.719664,30.0796568 Z M26.6977117,24.966678 C26.6977117,25.3886533 26.3724013,25.7112688 25.9469008,25.7112688 L10.1048289,25.7112688 C9.67932848,25.7112688 9.35401793,25.3886533 9.35401793,24.966678 L9.35401793,9.40468839 C9.35401793,8.98271303 9.67932848,8.66009754 10.1048289,8.66009754 L25.9469008,8.66009754 C26.3724013,8.66009754 26.6977117,8.98271303 26.6977117,9.40468839 L26.6977117,24.966678 L26.6977117,24.966678 Z M48.0665871,25.0412993 C48.0665871,25.4632746 47.7412764,25.7858901 47.3157759,25.7858901 L31.4737042,25.7858901 C31.0482037,25.7858901 30.7228931,25.4632746 30.7228931,25.0412993 L30.7228931,9.4793097 C30.7228931,9.05733433 31.0482037,8.73471885 31.4737042,8.73471885 L47.3157759,8.73471885 C47.7412764,8.73471885 48.0665871,9.05733433 48.0665871,9.4793097 L48.0665871,25.0412993 L48.0665871,25.0412993 Z M69.3303413,25.0412993 C69.3303413,25.4632746 69.0050308,25.7858901 68.5795303,25.7858901 L52.7374584,25.7858901 C52.3119579,25.7858901 51.9866475,25.4632746 51.9866475,25.0412993 L51.9866475,9.4793097 C51.9866475,9.05733433 52.3119579,8.73471885 52.7374584,8.73471885 L68.6046801,8.73471885 C69.0301804,8.73471885 69.355491,9.05733433 69.355491,9.4793097 L69.355491,25.0412993 L69.3303413,25.0412993 L69.3303413,25.0412993 Z M74.2741436,25.8148864 C73.4482924,25.8148864 73.0359373,25.7064268 73.0359373,24.8956802 L73.0359373,10.1764065 C73.0359373,9.36565988 72.9645926,8.76371571 73.7904439,8.76371571 L83.6724268,8.76371571 C89.2284694,8.76371571 95.4600782,19.5250269 95.4600782,22.3013171 C95.4602826,25.0039397 94.7845117,25.8148869 94.0337008,25.8148869 L74.2741436,25.8148864 Z" id="Top-Frame"></path>
                        </g>
                    </g>
                </g>
            </g>
        </g>
    </g>
</svg>