<?xml version="1.0" encoding="UTF-8" standalone="no"?>
<svg width="159px" height="159px" viewBox="0 0 159 159" version="1.1" xmlns="http://www.w3.org/2000/svg" xmlns:xlink="http://www.w3.org/1999/xlink">
    <!-- Generator: Sketch 46.2 (44496) - http://www.bohemiancoding.com/sketch -->
    <title>Logo</title>
    <desc>Created with Sketch.</desc>
    <defs></defs>
    <g id="Page-1" stroke="none" stroke-width="1" fill="none" fill-rule="evenodd">
        <g id="Alumni-Event" transform="translate(-50.000000, -30.000000)" fill-rule="nonzero">
            <g id="Content" transform="translate(44.000000, 30.000000)">
                <g id="Logo-Alumni-(Black)" transform="translate(6.000000, 0.000000)">
                    <g id="Logo">
                        <path d="M79.5,159 C123.406638,159 159,123.406638 159,79.5 C159,35.5933624 123.406638,0 79.5,0 C35.5933624,0 0,35.5933624 0,79.5 C0,123.406638 35.5933624,159 79.5,159 Z" id="black-circle" fill="#000000"></path>
                        <g id="icon" transform="translate(27.756777, 47.891566)" fill="#FFFFFF">
                            <path d="M23.6114531,44.3013017 C18.3807212,44.3013017 14.1512751,48.4959113 14.1512751,53.6831059 C14.1512751,58.8705034 18.3809257,63.0649102 23.6114531,63.0649102 C28.8419807,63.0649102 33.0716312,58.8703007 33.0716312,53.6831059 C33.0716312,48.4959113 28.8419807,44.3013017 23.6114531,44.3013017 L23.6114531,44.3013017 Z M23.6114531,58.7214636 C20.7834392,58.7214636 18.4559659,56.4132724 18.4559659,53.6086875 C18.4559659,50.8041024 20.7834392,48.4959113 23.6114531,48.4959113 C26.4394671,48.4959113 28.7669404,50.8041024 28.7669404,53.6086875 C28.7669404,56.4876909 26.5145074,58.7214636 23.6114531,58.7214636 L23.6114531,58.7214636 Z" id="Back-wheel"></path>
                            <path d="M78.4705487,44.3013017 C73.2398168,44.3013017 69.0103706,48.4959113 69.0103706,53.6831059 C69.0103706,58.8705034 73.2400213,63.0649102 78.4705487,63.0649102 C83.7012808,63.0649102 87.9307268,58.8703007 87.9307268,53.6831059 C87.9309313,48.4959113 83.7012808,44.3013017 78.4705487,44.3013017 L78.4705487,44.3013017 Z M78.4705487,58.7214636 C75.6425348,58.7214636 73.3150614,56.4132724 73.3150614,53.6086875 C73.3150614,50.8041024 75.6425348,48.4959113 78.4705487,48.4959113 C81.2985628,48.4959113 83.6260361,50.8041024 83.6260361,53.6086875 C83.6262405,56.4876909 81.2987672,58.7214636 78.4705487,58.7214636 L78.4705487,58.7214636 Z" id="Front-wheel"></path>
                            <path d="M23.6114531,42.4148831 C29.9183066,42.4148831 34.9738086,47.4285023 34.9738086,53.6831059 L67.1086024,53.6831059 C67.1086024,47.4285023 72.1641041,42.4148831 78.4709576,42.4148831 C84.7778113,42.4148831 89.8333131,47.4285023 89.8333131,53.6831059 L101.620964,53.4349089 C101.620964,53.4349089 103.372857,52.8640965 103.372857,49.4884963 C103.372857,46.1130988 101.045384,45.7902806 101.045384,45.7902806 L95.5643813,45.7158621 C95.5643813,45.7158621 94.8362711,41.4965139 90.3336493,37.2274858 C85.8310275,32.9584577 79.3718492,32.9584575 79.3718492,32.9584575 L1.2625569,33.281073 L1.2625569,48.5948657 C1.2625569,48.5948657 0.111395111,47.9246933 0.0363549023,51.0520965 C-0.0390942454,54.1050814 1.36233789,53.6086875 1.36233789,53.6086875 L12.2490978,53.6831059 C12.2490978,47.4128218 17.3045996,42.4148831 23.6114531,42.4148831 Z" id="Bottom-frame"></path>
                            <path d="M100.719664,30.0796568 L100.294164,24.7186838 C100.294164,24.7186838 97.2474653,14.8612019 89.9395303,7.36561335 L91.0982059,7.36561335 C87.7652788,0.780010678 61.1767431,0.414231641 51.741717,0.0975054315 C42.1312541,-0.225110053 6.24260957,2.23191812 2.68872981,5.45847851 C1.11206754,6.84830034 1.36233789,8.90849726 1.36233789,8.90849726 L1.36233789,30.4022723 L79.4286896,30.4022736 C79.4286896,30.4022736 86.5470246,30.4022736 92.0100926,34.7704575 C96.7549146,38.5643432 97.8914456,44.3260403 97.8914456,44.3260403 L100.71946,44.3260403 L100.644419,35.837664 L101.895771,35.9120824 C103.122178,34.0258667 102.621637,30.7248878 101.720745,30.0796568 L100.719664,30.0796568 Z M26.6977117,24.966678 C26.6977117,25.3886533 26.3724013,25.7112688 25.9469008,25.7112688 L10.1048289,25.7112688 C9.67932848,25.7112688 9.35401793,25.3886533 9.35401793,24.966678 L9.35401793,9.40468839 C9.35401793,8.98271303 9.67932848,8.66009754 10.1048289,8.66009754 L25.9469008,8.66009754 C26.3724013,8.66009754 26.6977117,8.98271303 26.6977117,9.40468839 L26.6977117,24.966678 L26.6977117,24.966678 Z M48.0665871,25.0412993 C48.0665871,25.4632746 47.7412764,25.7858901 47.3157759,25.7858901 L31.4737042,25.7858901 C31.0482037,25.7858901 30.7228931,25.4632746 30.7228931,25.0412993 L30.7228931,9.4793097 C30.7228931,9.05733433 31.0482037,8.73471885 31.4737042,8.73471885 L47.3157759,8.73471885 C47.7412764,8.73471885 48.0665871,9.05733433 48.0665871,9.4793097 L48.0665871,25.0412993 L48.0665871,25.0412993 Z M69.3303413,25.0412993 C69.3303413,25.4632746 69.0050308,25.7858901 68.5795303,25.7858901 L52.7374584,25.7858901 C52.3119579,25.7858901 51.9866475,25.4632746 51.9866475,25.0412993 L51.9866475,9.4793097 C51.9866475,9.05733433 52.3119579,8.73471885 52.7374584,8.73471885 L68.6046801,8.73471885 C69.0301804,8.73471885 69.355491,9.05733433 69.355491,9.4793097 L69.355491,25.0412993 L69.3303413,25.0412993 L69.3303413,25.0412993 Z M74.2741436,25.8148864 C73.4482924,25.8148864 73.0359373,25.7064268 73.0359373,24.8956802 L73.0359373,10.1764065 C73.0359373,9.36565988 72.9645926,8.76371571 73.7904439,8.76371571 L83.6724268,8.76371571 C89.2284694,8.76371571 95.4600782,19.5250269 95.4600782,22.3013171 C95.4602826,25.0039397 94.7845117,25.8148869 94.0337008,25.8148869 L74.2741436,25.8148864 Z" id="Top-Frame"></path>
                        </g>
                    </g>
                </g>
            </g>
        </g>
    </g>
</svg>