<?xml version="1.0" standalone="no"?><!DOCTYPE svg PUBLIC "-//W3C//DTD SVG 1.1//EN" "http://www.w3.org/Graphics/SVG/1.1/DTD/svg11.dtd"><svg t="1512045875484" class="icon" style="" viewBox="0 0 1024 1024" version="1.1" xmlns="http://www.w3.org/2000/svg" p-id="1984" xmlns:xlink="http://www.w3.org/1999/xlink" width="245" height="245"><defs><style type="text/css"></style></defs><path d="M514.112 41.968C254.528 41.968 44.08 252.416 44.08 512c0 259.584 210.432 470.032 470.032 470.032 259.584 0 470.032-210.432 470.032-470.032 0-259.584-210.448-470.032-470.032-470.032z m0 665.392c-107.888 0-195.36-87.472-195.36-195.36s87.472-195.36 195.36-195.36c107.888 0 195.36 87.472 195.36 195.36s-87.472 195.36-195.36 195.36zM792.144 536a24 24 0 0 1-24-24c0-140.08-113.968-254.032-254.032-254.032a24 24 0 1 1 0-48c166.544 0 302.032 135.488 302.032 302.032a24 24 0 0 1-24 24z m106.656 0a24 24 0 0 1-24-24c0-198.896-161.808-360.688-360.688-360.688a24 24 0 1 1 0-48c225.344 0 408.688 183.344 408.688 408.688a24 24 0 0 1-24 24z" p-id="1985"></path><path d="M514.112 444.64c-37.136 0-67.36 30.224-67.36 67.36s30.224 67.36 67.36 67.36c37.136 0 67.36-30.224 67.36-67.36s-30.224-67.36-67.36-67.36z" p-id="1986"></path></svg>