<?xml version="1.0" encoding="UTF-8" standalone="no"?>
<svg width="941px" height="942px" viewBox="0 0 941 942" version="1.1" xmlns="http://www.w3.org/2000/svg" xmlns:xlink="http://www.w3.org/1999/xlink">
    <!-- Generator: Sketch 46.2 (44496) - http://www.bohemiancoding.com/sketch -->
    <title>music</title>
    <desc>Created with Sketch.</desc>
    <defs></defs>
    <g id="Page-1" stroke="none" stroke-width="1" fill="none" fill-rule="evenodd">
        <g id="music" fill-rule="nonzero" fill="#FFFFFF">
            <path d="M470.112,0.968 C210.528,0.968 0.08,211.416 0.08,471 C0.08,730.584 210.512,941.032 470.112,941.032 C729.696,941.032 940.144,730.6 940.144,471 C940.144,211.416 729.696,0.968 470.112,0.968 Z M470.112,666.36 C362.224,666.36 274.752,578.888 274.752,471 C274.752,363.112 362.224,275.64 470.112,275.64 C578,275.64 665.472,363.112 665.472,471 C665.472,578.888 578,666.36 470.112,666.36 Z M748.144,495 C734.889166,495 724.144,484.254834 724.144,471 C724.144,330.92 610.176,216.968 470.112,216.968 C456.857166,216.968 446.112,206.222834 446.112,192.968 C446.112,179.713166 456.857166,168.968 470.112,168.968 C636.656,168.968 772.144,304.456 772.144,471 C772.144,484.254834 761.398834,495 748.144,495 L748.144,495 Z M854.8,495 C841.545166,495 830.8,484.254834 830.8,471 C830.8,272.104 668.992,110.312 470.112,110.312 C456.857166,110.312 446.112,99.566834 446.112,86.312 C446.112,73.057166 456.857166,62.312 470.112,62.312 C695.456,62.312 878.8,245.656 878.8,471 C878.8,484.254834 868.054834,495 854.8,495 L854.8,495 Z" id="Shape"></path>
            <path d="M470.112,403.64 C432.976,403.64 402.752,433.864 402.752,471 C402.752,508.136 432.976,538.36 470.112,538.36 C507.248,538.36 537.472,508.136 537.472,471 C537.472,433.864 507.248,403.64 470.112,403.64 Z" id="Shape"></path>
        </g>
    </g>
</svg>