<?xml version="1.0" encoding="UTF-8" standalone="no"?>
<svg width="251px" height="250px" viewBox="0 0 251 250" version="1.1" xmlns="http://www.w3.org/2000/svg" xmlns:xlink="http://www.w3.org/1999/xlink">
    <!-- Generator: Sketch 46.2 (44496) - http://www.bohemiancoding.com/sketch -->
    <title>Rocket</title>
    <desc>Created with Sketch.</desc>
    <defs>
        <linearGradient x1="50.077188%" y1="99.9928166%" x2="50.077188%" y2="-0.0286107537%" id="linearGradient-1">
            <stop stop-color="#7A869A" stop-opacity="0" offset="3%"></stop>
            <stop stop-color="#7A869A" stop-opacity="0.05" offset="7%"></stop>
            <stop stop-color="#7A869A" stop-opacity="0.19" offset="21%"></stop>
            <stop stop-color="#7A869A" stop-opacity="0.27" offset="35%"></stop>
            <stop stop-color="#7A869A" stop-opacity="0.3" offset="48%"></stop>
            <stop stop-color="#838EA1" stop-opacity="0.28" offset="62%"></stop>
            <stop stop-color="#9EA6B5" stop-opacity="0.21" offset="74%"></stop>
            <stop stop-color="#CBD0D8" stop-opacity="0.1" offset="85%"></stop>
            <stop stop-color="#F4F5F7" stop-opacity="0" offset="92%"></stop>
        </linearGradient>
        <linearGradient x1="0%" y1="50%" x2="100%" y2="50%" id="linearGradient-2">
            <stop stop-color="#C1C7D0" offset="0%"></stop>
            <stop stop-color="#FAFBFC" offset="100%"></stop>
        </linearGradient>
        <linearGradient x1="-64.7185371%" y1="49.9939533%" x2="103.800645%" y2="49.9939533%" id="linearGradient-3">
            <stop stop-color="#7A869A" offset="0%"></stop>
            <stop stop-color="#7A869A" stop-opacity="0.1" offset="100%"></stop>
        </linearGradient>
        <linearGradient x1="11070%" y1="17942%" x2="13860%" y2="17942%" id="linearGradient-4">
            <stop stop-color="#7A869A" offset="0%"></stop>
            <stop stop-color="#7A869A" stop-opacity="0.1" offset="100%"></stop>
        </linearGradient>
        <linearGradient x1="15840%" y1="18285%" x2="20177%" y2="18285%" id="linearGradient-5">
            <stop stop-color="#7A869A" offset="0%"></stop>
            <stop stop-color="#7A869A" stop-opacity="0.1" offset="100%"></stop>
        </linearGradient>
        <linearGradient x1="0%" y1="50%" x2="100%" y2="50%" id="linearGradient-6">
            <stop stop-color="#DE350B" offset="0%"></stop>
            <stop stop-color="#FF7452" offset="100%"></stop>
        </linearGradient>
        <linearGradient x1="-97.4551971%" y1="81.9455511%" x2="197.419355%" y2="27.3173971%" id="linearGradient-7">
            <stop stop-color="#FF5630" offset="0%"></stop>
            <stop stop-color="#FF5933" offset="21%"></stop>
            <stop stop-color="#FF623E" offset="39%"></stop>
            <stop stop-color="#FF7250" offset="56%"></stop>
            <stop stop-color="#FF876A" offset="73%"></stop>
            <stop stop-color="#FF8F73" offset="78%"></stop>
        </linearGradient>
        <linearGradient x1="155.46791%" y1="49.9844672%" x2="-0.0358551452%" y2="49.9844672%" id="linearGradient-8">
            <stop stop-color="#C1C7D0" offset="0%"></stop>
            <stop stop-color="#C1C7D0" stop-opacity="0.1" offset="100%"></stop>
        </linearGradient>
        <linearGradient x1="0.00395931288%" y1="50%" x2="100.115416%" y2="50%" id="linearGradient-9">
            <stop stop-color="#2684FF" offset="0%"></stop>
            <stop stop-color="#0052CC" offset="100%"></stop>
        </linearGradient>
        <linearGradient x1="0.0195198126%" y1="50%" x2="100.097599%" y2="50%" id="linearGradient-10">
            <stop stop-color="#0065FF" offset="0%"></stop>
            <stop stop-color="#4C9AFF" offset="100%"></stop>
        </linearGradient>
        <linearGradient x1="50%" y1="100%" x2="50%" y2="0%" id="linearGradient-11">
            <stop stop-color="#2684FF" offset="0%"></stop>
            <stop stop-color="#B2D4FF" offset="100%"></stop>
        </linearGradient>
        <linearGradient x1="-14.5167812%" y1="94.3869552%" x2="164.415689%" y2="25.0078394%" id="linearGradient-12">
            <stop stop-color="#C1C7D0" stop-opacity="0.1" offset="0%"></stop>
            <stop stop-color="#C1C7D0" offset="100%"></stop>
        </linearGradient>
    </defs>
    <g id="Page-1" stroke="none" stroke-width="1" fill="none" fill-rule="evenodd">
        <g id="slide-2" transform="translate(-59.000000, -287.000000)">
            <g id="Rocket" transform="translate(59.000000, 287.000000)">
                <path d="M250.3,195.64 C250.300001,199.580198 248.734079,203.35887 245.947001,206.144073 C243.159922,208.929276 239.380197,210.492653 235.44,210.49 L15.86,210.49 C10.4609269,210.630094 5.41092807,207.829786 2.67013816,203.176004 C-0.0706517555,198.522222 -0.0706517555,192.747778 2.67013816,188.093996 C5.41092807,183.440214 10.4609269,180.639906 15.86,180.78 L16.13,180.78 C17.9692151,167.987307 28.9257725,158.487648 41.85,158.48 C42.7033333,158.48 43.5433333,158.52 44.37,158.6 C47.8412044,147.86589 57.8385834,140.595069 69.12,140.6 L185,140.6 C196.281417,140.595069 206.278796,147.86589 209.75,158.6 C210.58,158.52 211.41,158.48 212.26,158.48 C225.26457,158.493033 236.259394,168.112436 238,181 C245.109993,182.247603 250.296976,188.421378 250.3,195.64 L250.3,195.64 Z" id="Shape" fill="url(#linearGradient-1)" fill-rule="nonzero"></path>
                <path d="M161.4,193.78 L89.9,193.78 L89.9,61.78 C89.9,42 125.65,0 125.65,0 L125.65,0 C125.65,0 161.4,42 161.4,61.75 L161.4,193.78 Z" id="_Path_" fill="url(#linearGradient-2)" fill-rule="nonzero"></path>
                <rect id="_Rectangle_" fill="#C1C7D0" fill-rule="nonzero" x="111.7" y="162.18" width="27.89" height="48.69"></rect>
                <rect id="_Rectangle_2" fill="#C1C7D0" fill-rule="nonzero" x="62" y="162.18" width="27.89" height="48.69"></rect>
                <path d="M74.11,163.83 C70.24,167.31 66.04,169.41 62.01,171.49 L62.01,197.78 L74.91,197.78 L74.91,202.26 C74.91,202.95864 75.4763598,203.525 76.175,203.525 C76.8736402,203.525 77.44,202.95864 77.44,202.26 L77.44,197.78 L89.9,197.78 L89.9,162.18 L75.9,162.18 L74.11,163.83 Z" id="Shape" fill="url(#linearGradient-3)" fill-rule="nonzero" opacity="0.7"></path>
                <rect id="_Rectangle_3" fill="#C1C7D0" fill-rule="nonzero" x="161.4" y="162.18" width="27.89" height="48.69"></rect>
                <rect id="Rectangle-path" fill="url(#linearGradient-4)" fill-rule="nonzero" opacity="0.7" x="111.7" y="162.18" width="27.89" height="34.47"></rect>
                <path d="M189.3,174 C183.99,170.86 178,168.68 172.63,163.86 C172.07,163.36 171.51,162.8 170.94,162.22 L161.4,162.22 L161.4,197.81 L169.29,197.81 L169.29,202.29 C169.29,202.98864 169.85636,203.555 170.555,203.555 C171.25364,203.555 171.82,202.98864 171.82,202.29 L171.82,197.81 L184.77,197.81 L184.77,202.29 C184.77,202.98864 185.33636,203.555 186.035,203.555 C186.73364,203.555 187.3,202.98864 187.3,202.29 L187.3,197.81 L189.3,197.81 L189.3,174 Z" id="Shape" fill="url(#linearGradient-5)" fill-rule="nonzero" opacity="0.7"></path>
                <rect id="Rectangle-path" fill="#2684FF" fill-rule="nonzero" x="89.9" y="126.45" width="71.5" height="67.33"></rect>
                <rect id="Rectangle-path" fill="#DFE1E5" fill-rule="nonzero" style="mix-blend-mode: multiply;" x="89.9" y="183.71" width="71.5" height="2"></rect>
                <rect id="Rectangle-path" fill="#DFE1E5" fill-rule="nonzero" style="mix-blend-mode: multiply;" x="89.9" y="174.73" width="71.5" height="2"></rect>
                <rect id="Rectangle-path" fill="#DFE1E5" fill-rule="nonzero" style="mix-blend-mode: multiply;" x="89.9" y="165.74" width="71.5" height="2"></rect>
                <path d="M89.9,193.78 L62,193.78 L62,67.27 C62,59.57 76,43.18 76,43.18 L76,43.18 C76,43.18 89.9,59.57 89.9,67.27 L89.9,193.78 Z" id="_Path_2" fill="url(#linearGradient-6)" fill-rule="nonzero"></path>
                <path d="M76.67,150.76 C71.97,154.99 66.78,157.18 62,159.76 L62,184.7 L89.9,184.7 L89.9,120.33 C88.15,137.13 82.13,145.86 76.67,150.76 Z" id="Shape" fill="#DFE1E5" fill-rule="nonzero" style="mix-blend-mode: multiply;"></path>
                <rect id="Rectangle-path" fill="#DFE1E5" fill-rule="nonzero" style="mix-blend-mode: multiply;" x="62" y="95.73" width="27.89" height="2"></rect>
                <rect id="Rectangle-path" fill="#DFE1E5" fill-rule="nonzero" style="mix-blend-mode: multiply;" x="62" y="86.74" width="27.89" height="2"></rect>
                <rect id="Rectangle-path" fill="#DFE1E5" fill-rule="nonzero" style="mix-blend-mode: multiply;" x="62" y="77.75" width="27.89" height="2"></rect>
                <path d="M189.3,193.78 L161.4,193.78 L161.4,67.27 C161.4,59.57 175.35,43.18 175.35,43.18 L175.35,43.18 C175.35,43.18 189.3,59.57 189.3,67.27 L189.3,193.78 Z" id="_Path_3" fill="url(#linearGradient-7)" fill-rule="nonzero"></path>
                <rect id="Rectangle-path" fill="#DFE1E5" fill-rule="nonzero" style="mix-blend-mode: multiply;" x="161.4" y="95.73" width="27.89" height="2"></rect>
                <rect id="Rectangle-path" fill="#DFE1E5" fill-rule="nonzero" style="mix-blend-mode: multiply;" x="161.4" y="86.74" width="27.89" height="2"></rect>
                <rect id="Rectangle-path" fill="#DFE1E5" fill-rule="nonzero" style="mix-blend-mode: multiply;" x="161.4" y="77.75" width="27.89" height="2"></rect>
                <path d="M189.3,159.17 C184.52,156.58 179.3,154.38 174.63,150.17 C169.18,145.27 163.15,136.54 161.41,119.74 L161.41,184.12 L189.3,184.12 L189.3,159.17 Z" id="Shape" fill="url(#linearGradient-8)" fill-rule="nonzero" style="mix-blend-mode: multiply;"></path>
                <path d="M46.53,193.78 C46.4766093,188.86229 47.6704425,184.011268 50,179.68 C56.22,168.6 67.37,168.15 76.63,159.83 C82.08,154.93 88.11,146.2 89.85,129.4 L89.85,193.78 L46.53,193.78 Z" id="Shape" fill="url(#linearGradient-9)" fill-rule="nonzero"></path>
                <path d="M143.53,23.47 C134.59,10.5 125.65,0 125.65,0 C125.65,0 110.58,17.7 100,35.52 C101.141028,35.338722 102.294662,35.2484377 103.45,35.25 C114.671716,35.2663848 124.114935,43.6579722 125.45,54.8 L125.78,54.8 C127.110815,43.6557505 136.556577,35.261903 147.78,35.25 C148.935322,35.2488577 150.088922,35.3391395 151.23,35.52 C148.86,31.43 146.19,27.34 143.53,23.47 Z" id="Shape" fill="url(#linearGradient-10)" fill-rule="nonzero"></path>
                <rect id="Rectangle-path" fill="url(#linearGradient-11)" fill-rule="nonzero" x="122.39" y="126.45" width="6.52" height="74.63"></rect>
                <path d="M46.53,193.78 L49.06,193.78 L49.06,198.26 C49.06,198.955879 48.4958788,199.52 47.8,199.52 L47.8,199.52 C47.1041212,199.52 46.54,198.955879 46.54,198.26 L46.54,193.78 L46.53,193.78 Z" id="Shape" fill="#0065FF" fill-rule="nonzero"></path>
                <path d="M62,193.78 L64.53,193.78 L64.53,198.26 C64.53,198.955879 63.9658788,199.52 63.27,199.52 L63.27,199.52 C62.934098,199.522666 62.611037,199.391094 62.3725739,199.154509 C62.1341109,198.917923 61.9999894,198.595913 62,198.26 L62,193.78 L62,193.78 Z" id="Shape" fill="#0065FF" fill-rule="nonzero"></path>
                <path d="M77.48,193.78 L80,193.78 L80,198.26 C80,198.594173 79.8672504,198.914659 79.6309545,199.150955 C79.3946587,199.38725 79.0741728,199.52 78.74,199.52 L78.74,199.52 C78.0441212,199.52 77.48,198.955879 77.48,198.26 L77.48,193.78 L77.48,193.78 Z" id="Shape" fill="#0065FF" fill-rule="nonzero"></path>
                <path d="M201.26,179.68 C195.04,168.6 183.89,168.15 174.63,159.83 C169.18,154.93 163.15,146.2 161.41,129.4 L161.41,193.78 L171.3,193.78 L171.3,198.26 C171.3,198.95864 171.86636,199.525 172.565,199.525 C173.26364,199.525 173.83,198.95864 173.83,198.26 L173.83,193.78 L186.78,193.78 L186.78,198.26 C186.78,198.95864 187.34636,199.525 188.045,199.525 C188.74364,199.525 189.31,198.95864 189.31,198.26 L189.31,193.78 L202.26,193.78 L202.26,198.26 C202.26,198.95864 202.82636,199.525 203.525,199.525 C204.22364,199.525 204.79,198.95864 204.79,198.26 L204.79,193.78 C204.824976,188.857069 203.610422,184.005736 201.26,179.68 L201.26,179.68 Z" id="Shape" fill="#B2D4FF" fill-rule="nonzero"></path>
                <rect id="Rectangle-path" fill="#DFE1E5" fill-rule="nonzero" x="62" y="205.1" width="27.9" height="2"></rect>
                <rect id="Rectangle-path" fill="#DFE1E5" fill-rule="nonzero" x="161.4" y="205.1" width="27.9" height="2"></rect>
                <path d="M122.39,129.71 C121.767996,137.790684 120.317038,145.786034 118.06,153.57 C113.831072,168.03926 106.913742,181.582165 97.67,193.49 L122.4,193.49 L122.39,129.71 Z" id="Shape" fill="url(#linearGradient-12)" fill-rule="nonzero" style="mix-blend-mode: multiply;"></path>
                <rect id="Rectangle-path" fill="#DFE1E5" fill-rule="nonzero" x="111.7" y="205.1" width="27.89" height="2"></rect>
                <g id="smile-down" transform="translate(98.000000, 57.000000)" fill="#253858">
                    <circle id="Oval-2" cx="50" cy="30" r="5"></circle>
                    <circle id="Oval-2" cx="5" cy="30" r="5"></circle>
                    <path d="M5,10 C10.8874233,3.8212719 19.0187492,0 28,0 C36.9812508,0 45.1125767,3.8212719 51,10 L5,10 Z" id="Combined-Shape"></path>
                </g>
                <g id="Group" transform="translate(63.000000, 224.000000)" fill-rule="nonzero" fill="#FFFFFF">
                    <g id="fart" transform="translate(63.500000, 13.000000) rotate(90.000000) translate(-63.500000, -13.000000) translate(50.500000, -1.500000)">
                        <path d="M11.3043478,13.3846154 L3.39130435,13.3846154 C2.76617391,13.3846154 2.26086957,13.8831923 2.26086957,14.5 C2.26086957,15.1168077 2.76617391,15.6153846 3.39130435,15.6153846 L11.3043478,15.6153846 C11.9294783,15.6153846 12.4347826,15.1168077 12.4347826,14.5 C12.4347826,13.8831923 11.9294783,13.3846154 11.3043478,13.3846154" id="Fill-35"></path>
                        <path d="M10.5718261,21.2636923 L1.52834783,17.9175385 C0.942782609,17.7033846 0.290521739,17.9911538 0.0712173913,18.5689231 C-0.146956522,19.1466923 0.149217391,19.7891538 0.732521739,20.0066538 L9.776,23.3528077 C9.90826087,23.4007692 10.0416522,23.4230769 10.173913,23.4230769 C10.6306087,23.4230769 11.0624348,23.1475769 11.2331304,22.7003077 C11.4513043,22.1225385 11.1551304,21.4800769 10.5718261,21.2636923" id="Fill-36"></path>
                        <path d="M1.13043478,11.1538462 C1.26269565,11.1538462 1.39608696,11.1304231 1.52834783,11.0824615 L10.5718261,7.73630769 C11.1551304,7.51992308 11.4513043,6.87746154 11.2331304,6.29969231 C11.0126957,5.72303846 10.3604348,5.43303846 9.776,5.64719231 L0.732521739,8.99334615 C0.149217391,9.21084615 -0.146956522,9.85330769 0.0712173913,10.4310769 C0.241913043,10.8783462 0.67373913,11.1538462 1.13043478,11.1538462" id="Fill-37"></path>
                        <path d="M26,14.5 C26,10.8716538 23.9335652,8.07984615 20.532087,6.99457692 C20.7073043,5.44976923 20.3071304,3.96407692 19.3598261,2.72265385 C18.0598261,1.01723077 15.893913,0 13.5652174,0 C12.940087,0 12.4347826,0.498576923 12.4347826,1.11538462 C12.4347826,1.73219231 12.940087,2.23076923 13.5652174,2.23076923 C15.1873913,2.23076923 16.6773043,2.91561538 17.5533913,4.06334615 C18.0745217,4.74819231 18.597913,5.89815385 18.1310435,7.49984615 C18.044,7.79876923 18.0869565,8.12 18.252,8.38657692 C18.415913,8.65426923 18.6849565,8.84053846 18.9958261,8.90188462 C21.9666087,9.48857692 23.7391304,11.5821538 23.7391304,14.5 C23.7391304,17.4178462 21.9666087,19.5114231 18.9958261,20.0981154 C18.6849565,20.1594615 18.415913,20.3457308 18.252,20.6134231 C18.0869565,20.88 18.044,21.2012308 18.1310435,21.5001538 C18.597913,23.1018462 18.0745217,24.2529231 17.5533913,24.9366538 C16.6784348,26.0843846 15.1873913,26.7692308 13.5652174,26.7692308 C12.940087,26.7692308 12.4347826,27.2678077 12.4347826,27.8846154 C12.4347826,28.5014231 12.940087,29 13.5652174,29 C15.893913,29 18.0598261,27.9827692 19.3598261,26.2784615 C20.3071304,25.0370385 20.7073043,23.5513462 20.5309565,22.0054231 C23.9335652,20.9201538 26,18.1283462 26,14.5" id="Fill-38"></path>
                    </g>
                    <g id="fart-copy" transform="translate(112.500000, 13.000000) rotate(90.000000) translate(-112.500000, -13.000000) translate(99.500000, -1.500000)">
                        <path d="M11.3043478,13.3846154 L3.39130435,13.3846154 C2.76617391,13.3846154 2.26086957,13.8831923 2.26086957,14.5 C2.26086957,15.1168077 2.76617391,15.6153846 3.39130435,15.6153846 L11.3043478,15.6153846 C11.9294783,15.6153846 12.4347826,15.1168077 12.4347826,14.5 C12.4347826,13.8831923 11.9294783,13.3846154 11.3043478,13.3846154" id="Fill-35"></path>
                        <path d="M10.5718261,21.2636923 L1.52834783,17.9175385 C0.942782609,17.7033846 0.290521739,17.9911538 0.0712173913,18.5689231 C-0.146956522,19.1466923 0.149217391,19.7891538 0.732521739,20.0066538 L9.776,23.3528077 C9.90826087,23.4007692 10.0416522,23.4230769 10.173913,23.4230769 C10.6306087,23.4230769 11.0624348,23.1475769 11.2331304,22.7003077 C11.4513043,22.1225385 11.1551304,21.4800769 10.5718261,21.2636923" id="Fill-36"></path>
                        <path d="M1.13043478,11.1538462 C1.26269565,11.1538462 1.39608696,11.1304231 1.52834783,11.0824615 L10.5718261,7.73630769 C11.1551304,7.51992308 11.4513043,6.87746154 11.2331304,6.29969231 C11.0126957,5.72303846 10.3604348,5.43303846 9.776,5.64719231 L0.732521739,8.99334615 C0.149217391,9.21084615 -0.146956522,9.85330769 0.0712173913,10.4310769 C0.241913043,10.8783462 0.67373913,11.1538462 1.13043478,11.1538462" id="Fill-37"></path>
                        <path d="M26,14.5 C26,10.8716538 23.9335652,8.07984615 20.532087,6.99457692 C20.7073043,5.44976923 20.3071304,3.96407692 19.3598261,2.72265385 C18.0598261,1.01723077 15.893913,0 13.5652174,0 C12.940087,0 12.4347826,0.498576923 12.4347826,1.11538462 C12.4347826,1.73219231 12.940087,2.23076923 13.5652174,2.23076923 C15.1873913,2.23076923 16.6773043,2.91561538 17.5533913,4.06334615 C18.0745217,4.74819231 18.597913,5.89815385 18.1310435,7.49984615 C18.044,7.79876923 18.0869565,8.12 18.252,8.38657692 C18.415913,8.65426923 18.6849565,8.84053846 18.9958261,8.90188462 C21.9666087,9.48857692 23.7391304,11.5821538 23.7391304,14.5 C23.7391304,17.4178462 21.9666087,19.5114231 18.9958261,20.0981154 C18.6849565,20.1594615 18.415913,20.3457308 18.252,20.6134231 C18.0869565,20.88 18.044,21.2012308 18.1310435,21.5001538 C18.597913,23.1018462 18.0745217,24.2529231 17.5533913,24.9366538 C16.6784348,26.0843846 15.1873913,26.7692308 13.5652174,26.7692308 C12.940087,26.7692308 12.4347826,27.2678077 12.4347826,27.8846154 C12.4347826,28.5014231 12.940087,29 13.5652174,29 C15.893913,29 18.0598261,27.9827692 19.3598261,26.2784615 C20.3071304,25.0370385 20.7073043,23.5513462 20.5309565,22.0054231 C23.9335652,20.9201538 26,18.1283462 26,14.5" id="Fill-38"></path>
                    </g>
                    <g id="fart-copy-2" transform="translate(14.500000, 13.000000) rotate(90.000000) translate(-14.500000, -13.000000) translate(1.500000, -1.500000)">
                        <path d="M11.3043478,13.3846154 L3.39130435,13.3846154 C2.76617391,13.3846154 2.26086957,13.8831923 2.26086957,14.5 C2.26086957,15.1168077 2.76617391,15.6153846 3.39130435,15.6153846 L11.3043478,15.6153846 C11.9294783,15.6153846 12.4347826,15.1168077 12.4347826,14.5 C12.4347826,13.8831923 11.9294783,13.3846154 11.3043478,13.3846154" id="Fill-35"></path>
                        <path d="M10.5718261,21.2636923 L1.52834783,17.9175385 C0.942782609,17.7033846 0.290521739,17.9911538 0.0712173913,18.5689231 C-0.146956522,19.1466923 0.149217391,19.7891538 0.732521739,20.0066538 L9.776,23.3528077 C9.90826087,23.4007692 10.0416522,23.4230769 10.173913,23.4230769 C10.6306087,23.4230769 11.0624348,23.1475769 11.2331304,22.7003077 C11.4513043,22.1225385 11.1551304,21.4800769 10.5718261,21.2636923" id="Fill-36"></path>
                        <path d="M1.13043478,11.1538462 C1.26269565,11.1538462 1.39608696,11.1304231 1.52834783,11.0824615 L10.5718261,7.73630769 C11.1551304,7.51992308 11.4513043,6.87746154 11.2331304,6.29969231 C11.0126957,5.72303846 10.3604348,5.43303846 9.776,5.64719231 L0.732521739,8.99334615 C0.149217391,9.21084615 -0.146956522,9.85330769 0.0712173913,10.4310769 C0.241913043,10.8783462 0.67373913,11.1538462 1.13043478,11.1538462" id="Fill-37"></path>
                        <path d="M26,14.5 C26,10.8716538 23.9335652,8.07984615 20.532087,6.99457692 C20.7073043,5.44976923 20.3071304,3.96407692 19.3598261,2.72265385 C18.0598261,1.01723077 15.893913,0 13.5652174,0 C12.940087,0 12.4347826,0.498576923 12.4347826,1.11538462 C12.4347826,1.73219231 12.940087,2.23076923 13.5652174,2.23076923 C15.1873913,2.23076923 16.6773043,2.91561538 17.5533913,4.06334615 C18.0745217,4.74819231 18.597913,5.89815385 18.1310435,7.49984615 C18.044,7.79876923 18.0869565,8.12 18.252,8.38657692 C18.415913,8.65426923 18.6849565,8.84053846 18.9958261,8.90188462 C21.9666087,9.48857692 23.7391304,11.5821538 23.7391304,14.5 C23.7391304,17.4178462 21.9666087,19.5114231 18.9958261,20.0981154 C18.6849565,20.1594615 18.415913,20.3457308 18.252,20.6134231 C18.0869565,20.88 18.044,21.2012308 18.1310435,21.5001538 C18.597913,23.1018462 18.0745217,24.2529231 17.5533913,24.9366538 C16.6784348,26.0843846 15.1873913,26.7692308 13.5652174,26.7692308 C12.940087,26.7692308 12.4347826,27.2678077 12.4347826,27.8846154 C12.4347826,28.5014231 12.940087,29 13.5652174,29 C15.893913,29 18.0598261,27.9827692 19.3598261,26.2784615 C20.3071304,25.0370385 20.7073043,23.5513462 20.5309565,22.0054231 C23.9335652,20.9201538 26,18.1283462 26,14.5" id="Fill-38"></path>
                    </g>
                </g>
            </g>
        </g>
    </g>
</svg>