<?xml version="1.0" encoding="UTF-8" standalone="no"?>
<svg width="124px" height="179px" viewBox="0 0 124 179" version="1.1" xmlns="http://www.w3.org/2000/svg" xmlns:xlink="http://www.w3.org/1999/xlink">
    <!-- Generator: Sketch 46.2 (44496) - http://www.bohemiancoding.com/sketch -->
    <title>smiley-bird-ho</title>
    <desc>Created with Sketch.</desc>
    <defs>
        <linearGradient x1="72.0690034%" y1="95.0456121%" x2="27.8330738%" y2="5.30300796%" id="linearGradient-1">
            <stop stop-color="#FFE380" offset="0%"></stop>
            <stop stop-color="#FFDA6C" offset="11%"></stop>
            <stop stop-color="#FFC63E" offset="40%"></stop>
            <stop stop-color="#FFB71C" offset="65%"></stop>
            <stop stop-color="#FFAE07" offset="86%"></stop>
            <stop stop-color="#FFAB00" offset="100%"></stop>
        </linearGradient>
    </defs>
    <g id="Page-1" stroke="none" stroke-width="1" fill="none" fill-rule="evenodd">
        <g id="slide-1-copy" transform="translate(-125.000000, -167.000000)" fill-rule="nonzero">
            <g id="smiley-bird-ho" transform="translate(125.000000, 159.000000)">
                <g id="smiley-ho" transform="translate(0.000000, 63.000000)">
                    <circle id="Oval" fill="url(#linearGradient-1)" cx="62.1376812" cy="61.9565217" r="61.7753623"></circle>
                    <circle id="Oval" fill="#FF8B00" transform="translate(31.556250, 67.091938) rotate(-26.239612) translate(-31.556250, -67.091938) " cx="31.55625" cy="67.0919384" r="6.5213544"></circle>
                    <circle id="Oval" fill="#FF8B00" transform="translate(70.826087, 80.205181) rotate(-26.239612) translate(-70.826087, -80.205181) " cx="70.826087" cy="80.2051812" r="12.4992626"></circle>
                    <circle id="Oval" fill="#FF8B00" transform="translate(84.055489, 39.611359) rotate(-26.239612) translate(-84.055489, -39.611359) " cx="84.0554891" cy="39.6113587" r="6.5213544"></circle>
                </g>
                <g id="heart" transform="translate(13.000000, 0.000000)" fill-opacity="0.85" fill="#FFFFFF">
                    <path d="M72.2422911,36.786416 C54.6212095,34.7539436 63.0900926,8 45.3124869,8 C35.1052542,8 29.6758398,15.9474697 28.3772086,24.9311822 L23.8446458,27.8375869 C23.1003792,28.3144638 23.1391474,29.0291636 23.9308895,29.4245774 L28.1510262,31.5329725 C28.2022334,32.2318722 28.2756235,32.9274887 28.3734769,33.6157181 C29.9747903,44.881422 35.6683261,54.6454972 45.9257294,57.693898 C46.0300097,57.7250878 46.2400214,57.8090133 46.2400214,58.2027855 L46.2400214,62.6873573 C46.2400214,63.4119065 46.8339834,63.9997948 47.5662257,63.9997948 C48.2986752,63.9997948 48.8922226,63.4119065 48.8922226,62.6873573 L48.8922226,58.5746018 C48.8922226,58.3669428 49.0313321,58.3845897 49.1011978,58.3950548 C50.6519259,58.6275425 52.2905563,58.7217278 54.0206133,58.660374 C54.0396865,58.6595532 54.0585523,58.6591428 54.0774181,58.658322 C54.1176375,58.6566804 54.18543,58.6899223 54.1972471,58.7997025 L54.1972471,62.6875625 C54.1972471,63.4121117 54.7910018,64 55.523244,64 C56.2556936,64 56.849241,63.4121117 56.849241,62.6875625 L56.849241,58.5087337 C56.849241,58.3560674 56.9446066,58.3287763 56.9924968,58.3195424 C71.1012206,55.5809885 79.7231033,37.6496781 72.2422911,36.786416 Z M38.6567948,24.6389822 C38.4515514,24.1132685 38.4082222,23.7361172 38.4082222,23.1385847 C38.4082222,20.5399749 40.5371564,18.4332213 43.1630284,18.4332213 C45.7886932,18.4332213 47.91742,20.5399749 47.91742,23.1385847 C47.91742,23.7361172 47.8850786,24.0884397 47.6798352,24.6141534 C47.616189,24.7571755 47.5902744,24.8255059 47.3966407,24.57927 C46.4272283,23.3485008 44.8628172,22.6239516 43.1630284,22.6239516 C41.4912274,22.6239516 39.992743,23.3587606 38.9797941,24.5203786 C38.8914772,24.6213353 38.7488434,24.872496 38.6567948,24.6389822 Z M58.9555777,45.1344294 C53.6221508,47.405135 48.2194803,46.9619104 46.2095458,43.164542 C44.5120375,39.9558827 44.5613789,35.4760305 48.4166384,34.114551 C53.5081267,32.3164132 54.755136,38.0516582 59.1013212,39.6349552 C63.9104444,41.3885654 62.7154715,43.5334855 58.9555777,45.1344294 Z" id="Shape"></path>
                </g>
                <g id="fart" transform="translate(94.000000, 28.000000)" fill="#FFFFFF">
                    <path d="M11.3043478,13.3846154 L3.39130435,13.3846154 C2.76617391,13.3846154 2.26086957,13.8831923 2.26086957,14.5 C2.26086957,15.1168077 2.76617391,15.6153846 3.39130435,15.6153846 L11.3043478,15.6153846 C11.9294783,15.6153846 12.4347826,15.1168077 12.4347826,14.5 C12.4347826,13.8831923 11.9294783,13.3846154 11.3043478,13.3846154" id="Fill-35"></path>
                    <path d="M10.5718261,21.2636923 L1.52834783,17.9175385 C0.942782609,17.7033846 0.290521739,17.9911538 0.0712173913,18.5689231 C-0.146956522,19.1466923 0.149217391,19.7891538 0.732521739,20.0066538 L9.776,23.3528077 C9.90826087,23.4007692 10.0416522,23.4230769 10.173913,23.4230769 C10.6306087,23.4230769 11.0624348,23.1475769 11.2331304,22.7003077 C11.4513043,22.1225385 11.1551304,21.4800769 10.5718261,21.2636923" id="Fill-36"></path>
                    <path d="M1.13043478,11.1538462 C1.26269565,11.1538462 1.39608696,11.1304231 1.52834783,11.0824615 L10.5718261,7.73630769 C11.1551304,7.51992308 11.4513043,6.87746154 11.2331304,6.29969231 C11.0126957,5.72303846 10.3604348,5.43303846 9.776,5.64719231 L0.732521739,8.99334615 C0.149217391,9.21084615 -0.146956522,9.85330769 0.0712173913,10.4310769 C0.241913043,10.8783462 0.67373913,11.1538462 1.13043478,11.1538462" id="Fill-37"></path>
                    <path d="M26,14.5 C26,10.8716538 23.9335652,8.07984615 20.532087,6.99457692 C20.7073043,5.44976923 20.3071304,3.96407692 19.3598261,2.72265385 C18.0598261,1.01723077 15.893913,0 13.5652174,0 C12.940087,0 12.4347826,0.498576923 12.4347826,1.11538462 C12.4347826,1.73219231 12.940087,2.23076923 13.5652174,2.23076923 C15.1873913,2.23076923 16.6773043,2.91561538 17.5533913,4.06334615 C18.0745217,4.74819231 18.597913,5.89815385 18.1310435,7.49984615 C18.044,7.79876923 18.0869565,8.12 18.252,8.38657692 C18.415913,8.65426923 18.6849565,8.84053846 18.9958261,8.90188462 C21.9666087,9.48857692 23.7391304,11.5821538 23.7391304,14.5 C23.7391304,17.4178462 21.9666087,19.5114231 18.9958261,20.0981154 C18.6849565,20.1594615 18.415913,20.3457308 18.252,20.6134231 C18.0869565,20.88 18.044,21.2012308 18.1310435,21.5001538 C18.597913,23.1018462 18.0745217,24.2529231 17.5533913,24.9366538 C16.6784348,26.0843846 15.1873913,26.7692308 13.5652174,26.7692308 C12.940087,26.7692308 12.4347826,27.2678077 12.4347826,27.8846154 C12.4347826,28.5014231 12.940087,29 13.5652174,29 C15.893913,29 18.0598261,27.9827692 19.3598261,26.2784615 C20.3071304,25.0370385 20.7073043,23.5513462 20.5309565,22.0054231 C23.9335652,20.9201538 26,18.1283462 26,14.5" id="Fill-38"></path>
                </g>
            </g>
        </g>
    </g>
</svg>