<?xml version="1.0" encoding="UTF-8" standalone="no"?>
<svg width="124px" height="179px" viewBox="0 0 124 179" version="1.1" xmlns="http://www.w3.org/2000/svg" xmlns:xlink="http://www.w3.org/1999/xlink">
    <!-- Generator: Sketch 46.2 (44496) - http://www.bohemiancoding.com/sketch -->
    <title>smiley-fart</title>
    <desc>Created with Sketch.</desc>
    <defs>
        <linearGradient x1="72.0690034%" y1="95.0456121%" x2="27.8330738%" y2="5.30300796%" id="linearGradient-1">
            <stop stop-color="#FFE380" offset="0%"></stop>
            <stop stop-color="#FFDA6C" offset="11%"></stop>
            <stop stop-color="#FFC63E" offset="40%"></stop>
            <stop stop-color="#FFB71C" offset="65%"></stop>
            <stop stop-color="#FFAE07" offset="86%"></stop>
            <stop stop-color="#FFAB00" offset="100%"></stop>
        </linearGradient>
    </defs>
    <g id="Page-1" stroke="none" stroke-width="1" fill="none" fill-rule="evenodd">
        <g id="slide-1-copy" transform="translate(-125.000000, -167.000000)" fill-rule="nonzero">
            <g id="smiley-fart" transform="translate(125.000000, 167.000000)">
                <circle id="Oval" fill="url(#linearGradient-1)" cx="62.1376812" cy="116.956522" r="61.7753623"></circle>
                <path d="M34.4395108,127.941286 C31.2090052,129.533667 27.2992831,128.205705 25.7069022,124.975199 C24.1145212,121.744694 25.4424836,117.834972 28.6729892,116.242591 C31.9034948,114.65021 35.8132169,115.978172 37.4055978,119.208678 C38.9979788,122.439183 37.6700164,126.348905 34.4395108,127.941286 Z M76.3523369,146.416431 C70.1605345,149.468495 62.6669005,146.923234 59.6148369,140.731431 C56.5627734,134.539629 59.1080346,127.045995 65.299837,123.993931 C71.4916395,120.941868 78.9852734,123.487129 82.037337,129.678931 C85.0894006,135.870734 82.5441393,143.364368 76.3523369,146.416431 Z M86.93875,100.460707 C83.7082443,102.053088 79.7985223,100.725125 78.2061413,97.4946195 C76.6137603,94.2641139 77.9417227,90.3543918 81.1722283,88.7620108 C84.4027339,87.1696299 88.312456,88.4975923 89.904837,91.7280979 C91.497218,94.9586035 90.1692556,98.8683256 86.93875,100.460707 Z" id="Combined-Shape" fill="#FF8B00"></path>
                <path d="M85.2422911,28.786416 C67.6212095,26.7539436 76.0900926,0 58.3124869,0 C48.1052542,0 42.6758398,7.94746967 41.3772086,16.9311822 L36.8446458,19.8375869 C36.1003792,20.3144638 36.1391474,21.0291636 36.9308895,21.4245774 L41.1510262,23.5329725 C41.2022334,24.2318722 41.2756235,24.9274887 41.3734769,25.6157181 C42.9747903,36.881422 48.6683261,46.6454972 58.9257294,49.693898 C59.0300097,49.7250878 59.2400214,49.8090133 59.2400214,50.2027855 L59.2400214,54.6873573 C59.2400214,55.4119065 59.8339834,55.9997948 60.5662257,55.9997948 C61.2986752,55.9997948 61.8922226,55.4119065 61.8922226,54.6873573 L61.8922226,50.5746018 C61.8922226,50.3669428 62.0313321,50.3845897 62.1011978,50.3950548 C63.6519259,50.6275425 65.2905563,50.7217278 67.0206133,50.660374 C67.0396865,50.6595532 67.0585523,50.6591428 67.0774181,50.658322 C67.1176375,50.6566804 67.18543,50.6899223 67.1972471,50.7997025 L67.1972471,54.6875625 C67.1972471,55.4121117 67.7910018,56 68.523244,56 C69.2556936,56 69.849241,55.4121117 69.849241,54.6875625 L69.849241,50.5087337 C69.849241,50.3560674 69.9446066,50.3287763 69.9924968,50.3195424 C84.1012206,47.5809885 92.7231033,29.6496781 85.2422911,28.786416 Z M51.6567948,16.6389822 C51.4515514,16.1132685 51.4082222,15.7361172 51.4082222,15.1385847 C51.4082222,12.5399749 53.5371564,10.4332213 56.1630284,10.4332213 C58.7886932,10.4332213 60.91742,12.5399749 60.91742,15.1385847 C60.91742,15.7361172 60.8850786,16.0884397 60.6798352,16.6141534 C60.616189,16.7571755 60.5902744,16.8255059 60.3966407,16.57927 C59.4272283,15.3485008 57.8628172,14.6239516 56.1630284,14.6239516 C54.4912274,14.6239516 52.992743,15.3587606 51.9797941,16.5203786 C51.8914772,16.6213353 51.7488434,16.872496 51.6567948,16.6389822 Z M71.9555777,37.1344294 C66.6221508,39.405135 61.2194803,38.9619104 59.2095458,35.164542 C57.5120375,31.9558827 57.5613789,27.4760305 61.4166384,26.114551 C66.5081267,24.3164132 67.755136,30.0516582 72.1013212,31.6349552 C76.9104444,33.3885654 75.7154715,35.5334855 71.9555777,37.1344294 Z" id="Shape" fill="#FFFFFF"></path>
                <path d="M105.304348,33.3846154 C105.929478,33.3846154 106.434783,33.8831923 106.434783,34.5 C106.434783,35.1168077 105.929478,35.6153846 105.304348,35.6153846 L97.3913043,35.6153846 C96.7661739,35.6153846 96.2608696,35.1168077 96.2608696,34.5 C96.2608696,33.8831923 96.7661739,33.3846154 97.3913043,33.3846154 L105.304348,33.3846154 Z M104.571826,41.2636923 C105.15513,41.4800769 105.451304,42.1225385 105.23313,42.7003077 C105.062435,43.1475769 104.630609,43.4230769 104.173913,43.4230769 C104.041652,43.4230769 103.908261,43.4007692 103.776,43.3528077 L94.7325217,40.0066538 C94.1492174,39.7891538 93.8530435,39.1466923 94.0712174,38.5689231 C94.2905217,37.9911538 94.9427826,37.7033846 95.5283478,37.9175385 L104.571826,41.2636923 Z M95.1304348,31.1538462 C94.6737391,31.1538462 94.241913,30.8783462 94.0712174,30.4310769 C93.8530435,29.8533077 94.1492174,29.2108462 94.7325217,28.9933462 L103.776,25.6471923 C104.360435,25.4330385 105.012696,25.7230385 105.23313,26.2996923 C105.451304,26.8774615 105.15513,27.5199231 104.571826,27.7363077 L95.5283478,31.0824615 C95.396087,31.1304231 95.2626957,31.1538462 95.1304348,31.1538462 Z M120,34.5 C120,38.1283462 117.933565,40.9201538 114.530957,42.0054231 C114.707304,43.5513462 114.30713,45.0370385 113.359826,46.2784615 C112.059826,47.9827692 109.893913,49 107.565217,49 C106.940087,49 106.434783,48.5014231 106.434783,47.8846154 C106.434783,47.2678077 106.940087,46.7692308 107.565217,46.7692308 C109.187391,46.7692308 110.678435,46.0843846 111.553391,44.9366538 C112.074522,44.2529231 112.597913,43.1018462 112.131043,41.5001538 C112.044,41.2012308 112.086957,40.88 112.252,40.6134231 C112.415913,40.3457308 112.684957,40.1594615 112.995826,40.0981154 C115.966609,39.5114231 117.73913,37.4178462 117.73913,34.5 C117.73913,31.5821538 115.966609,29.4885769 112.995826,28.9018846 C112.684957,28.8405385 112.415913,28.6542692 112.252,28.3865769 C112.086957,28.12 112.044,27.7987692 112.131043,27.4998462 C112.597913,25.8981538 112.074522,24.7481923 111.553391,24.0633462 C110.677304,22.9156154 109.187391,22.2307692 107.565217,22.2307692 C106.940087,22.2307692 106.434783,21.7321923 106.434783,21.1153846 C106.434783,20.4985769 106.940087,20 107.565217,20 C109.893913,20 112.059826,21.0172308 113.359826,22.7226538 C114.30713,23.9640769 114.707304,25.4497692 114.532087,26.9945769 C117.933565,28.0798462 120,30.8716538 120,34.5 Z" id="fart" fill="#FFFFFF"></path>
            </g>
        </g>
    </g>
</svg>